<svg width="69" height="39" viewBox="0 0 69 39" fill="none" xmlns="http://www.w3.org/2000/svg">
<path d="M55.8043 2.6C57.2593 2.6 58.7491 2.83893 60.2379 3.31289L60.8756 3.52969L60.8766 3.53066C64.0953 4.70586 65.9547 6.48074 65.9547 9.00039C65.9546 9.86189 65.7672 10.6036 65.2965 11.1322C64.8155 11.6722 64.1199 11.8998 63.3043 11.8998H63.0543L63.0045 11.89L58.6568 11.0004H58.0045C57.5009 11.0004 57.2118 11.0634 57.0641 11.1391C56.9994 11.1722 56.9786 11.1984 56.9723 11.2084C56.9668 11.2171 56.9547 11.241 56.9547 11.3002C56.9548 11.4107 57.0305 11.6287 57.5924 11.9594C59.2219 12.7496 60.4336 13.3556 61.2037 13.8168C62.3518 14.4791 63.3242 15.1127 64.109 15.7504L64.4342 16.0238L64.4371 16.0268C66.7984 18.1259 67.9547 20.8143 67.9547 24.0004C67.9546 27.8322 66.9574 30.7965 64.8834 32.7973C62.8125 34.7949 59.7524 35.7504 55.8043 35.7504C53.5467 35.7503 51.6523 35.3389 50.1031 34.4311V34.432C46.3979 32.2706 44.4547 29.4271 44.4547 25.9496C44.4547 24.2339 44.8435 22.8548 45.7018 21.9027C46.5689 20.9408 47.8375 20.5004 49.4049 20.5004C49.899 20.5004 50.3337 20.5618 50.7291 20.6625L51.1129 20.7758L51.1275 20.7807L51.1422 20.7865C52.1858 21.2089 53.0222 21.5165 53.6607 21.7172C54.3175 21.9236 54.7146 22.0004 54.9049 22.0004C55.4929 22.0004 55.839 21.903 56.025 21.7816C56.1723 21.6854 56.2545 21.5532 56.2545 21.3002C56.2545 20.5491 55.6907 19.7764 54.1197 18.9418H54.1188C52.4216 18.0932 50.7334 17.2484 48.9967 16.4545L48.9635 16.4398L48.9332 16.4203C46.4407 14.8106 45.1051 12.8216 45.1051 10.3998C45.1051 8.73656 45.529 7.31409 46.398 6.15078C47.2645 4.99106 48.5428 4.12957 50.1832 3.53066L50.1842 3.52969C51.8951 2.90759 53.7536 2.60004 55.8043 2.6ZM60.3521 21.5619C60.3225 23.2785 59.8182 24.6521 58.7701 25.5961C57.6991 26.5607 56.1454 27.0004 54.2047 27.0004C53.4575 27.0004 52.568 26.8931 51.4889 26.6361L51.4781 26.6342L51.4674 26.6312C51.176 26.548 50.8876 26.5056 50.6012 26.5014C51.5147 27.1719 52.6358 27.5004 53.9547 27.5004C56.1882 27.5004 57.7703 26.9894 58.7926 26.0561C59.8063 25.1305 60.3551 23.7102 60.3551 21.6996C60.3551 21.6534 60.3525 21.6075 60.3521 21.5619ZM59.4811 18.3207H59.4801C59.9143 18.802 60.168 19.4839 60.2818 20.2885C60.1642 19.2282 59.9063 18.4259 59.5309 17.8568C59.1963 17.3498 58.7542 17.0061 58.1783 16.8324L59.4811 18.3207ZM51.6549 8.35C51.2506 8.35 51.0303 8.44647 50.9127 8.55508C50.8024 8.65695 50.7048 8.8411 50.7047 9.19961C50.7047 9.26677 50.7145 9.30778 50.7223 9.32949C50.7293 9.34891 50.7353 9.35434 50.7369 9.35586C50.7377 9.35656 50.7819 9.3998 50.9547 9.3998C51.3456 9.3998 51.5395 9.29896 51.6441 9.18594C51.7558 9.06519 51.8551 8.83524 51.8551 8.3998C51.8551 8.39199 51.8536 8.38592 51.8531 8.38125C51.8317 8.37109 51.7742 8.35002 51.6549 8.35Z" stroke="#8A2BE2"/>
<path d="M31.3627 16.4092C31.3922 17.3958 31.591 18.0654 31.8988 18.4863C32.2029 18.902 32.6582 19.1354 33.351 19.1475C33.3541 19.1226 33.3578 19.0903 33.3578 19.0498C33.3578 18.0598 33.1438 17.4123 32.7992 17.0156C32.5019 16.6735 32.0479 16.4526 31.3627 16.4092ZM40.6576 6.75C40.5984 6.75 40.5746 6.76208 40.5658 6.76758C40.5558 6.77392 40.5296 6.79475 40.4965 6.85938C40.4208 7.00708 40.3578 7.2962 40.3578 7.7998C40.3578 8.13708 40.4041 8.3165 40.4428 8.39551C40.5038 8.39116 40.5417 8.37884 40.5668 8.36328C40.5977 8.34399 40.6402 8.30573 40.685 8.22168C40.7832 8.03699 40.8578 7.69858 40.8578 7.15039V6.84766C40.7647 6.76791 40.6913 6.75007 40.6576 6.75ZM27.9027 6.1084C27.8767 6.23855 27.8578 6.4309 27.8578 6.7002C27.8578 7.3991 27.9444 7.86401 28.0687 8.13574C28.0754 8.15034 28.0826 8.1638 28.0893 8.17676C28.1001 8.03611 28.1078 7.86183 28.1078 7.65039C28.1078 6.93861 28.0442 6.47408 27.9447 6.2041C27.9305 6.16544 27.9157 6.13415 27.9027 6.1084ZM39.7572 31.6836L39.7533 31.7158C39.4917 33.6781 38.7612 35.2091 37.5062 36.2422C36.2563 37.2711 34.5539 37.75 32.4574 37.75C30.9854 37.75 29.7466 37.4208 28.7865 36.7148C27.8218 36.0055 27.1928 34.955 26.8715 33.6162L26.8578 33.5596V32.25C26.8578 31.0151 27.0112 29.9381 27.3998 29.0498L27.4047 29.0371C28.2057 27.335 28.8004 26.0465 29.1449 25.21L29.1459 25.208C29.3827 24.6396 29.5072 24.1584 29.5072 23.7002C29.5072 23.449 29.3883 22.8807 29.0473 21.9502C27.7488 19.4021 26.501 16.8053 25.3031 14.21V14.209C24.0835 11.666 23.4575 9.29389 23.4574 7.15039C23.4574 5.12358 23.8528 3.51718 24.7201 2.41016C25.6055 1.28019 26.918 0.750084 28.557 0.75C29.7944 0.75 30.8687 1.13855 31.7318 1.92383C32.4792 2.60384 33.042 3.55672 33.433 4.74512L33.5902 5.26855L33.5912 5.27441C33.8966 6.45225 34.1362 7.47632 34.227 8.35449L34.2562 8.72266L34.2572 8.73438L34.307 10.8838C34.3132 11.1839 34.3199 11.4563 34.3275 11.7031L34.3568 12.3691V12.3711C34.4054 13.2213 34.5374 13.8054 34.7123 14.1602C34.8788 14.498 35.036 14.5498 35.1576 14.5498C35.3152 14.5498 35.432 14.4982 35.5385 14.3818C35.6543 14.2551 35.7696 14.0338 35.8578 13.6807V11.5332C35.6682 10.1998 35.5683 9.18269 35.516 8.52441C35.505 8.49275 35.4955 8.46763 35.4916 8.45117C35.4756 8.38346 35.4691 8.31535 35.4652 8.26074C35.4574 8.15155 35.4574 8.01865 35.4574 7.90039C35.4574 5.80729 36.0486 4.15061 37.3051 3.02734C38.5512 1.91353 40.3679 1.40039 42.6576 1.40039C44.3036 1.40042 45.6249 1.79126 46.5336 2.65625C47.4468 3.52564 47.8577 4.79122 47.8578 6.34961C47.8578 8.82958 46.9074 11.4764 45.0219 14.2793L45.018 14.2861L45.0131 14.292C43.2129 16.7922 41.8667 18.6879 41.0209 19.9316C39.8942 21.5976 39.3578 22.9969 39.3578 24.1504V24.9736C39.5546 26.4996 39.7054 27.704 39.7562 28.4668L39.7572 28.4834V31.6836Z" stroke="#8A2BE2"/>
<path d="M15.55 1.25C17.695 1.25 19.575 1.95586 21.1672 3.35547C22.7494 4.74648 24.026 6.80286 25.0188 9.47559L25.2219 10.04C26.207 12.8702 26.7004 15.7908 26.7004 18.7998C26.7004 23.5992 25.8415 27.546 24.0813 30.5L24.0822 30.501C22.7835 32.7348 21.0963 34 19.0998 34C17.7015 33.9999 16.5803 33.4573 15.8039 32.3574C15.05 31.2893 14.6532 29.7414 14.551 27.7773L14.4064 24.9736C14.3633 24.0499 14.3261 23.1251 14.301 22.2119C14.182 21.6301 14.0384 21.2354 13.8889 20.9971C13.7408 20.7611 13.6396 20.75 13.5998 20.75C13.5688 20.75 13.5253 20.7551 13.4543 20.8379C13.3705 20.9357 13.2713 21.1211 13.1809 21.4375C13.0005 22.0687 12.8996 23.0623 12.8996 24.4502V25.9785C13.0449 27.5832 13.0977 28.816 13.1457 29.6523C13.1589 29.6978 13.1676 29.7395 13.173 29.7734C13.1842 29.8427 13.19 29.9164 13.1936 29.9873C13.2006 30.1277 13.2004 30.3051 13.2004 30.5C13.2004 32.7238 12.7805 34.4765 11.8674 35.6826C10.9343 36.9149 9.54549 37.5 7.8 37.5C6.35408 37.5 5.09994 36.9367 4.06758 35.8428C3.04852 34.7629 2.25598 33.1789 1.66914 31.1377L1.66719 31.1299C1.10703 29.042 0.8 26.8979 0.8 24.7998C0.800041 18.039 2.88687 11.8365 6.99629 6.20508L6.99922 6.20117L7.22676 5.90234C9.59443 2.85888 12.3999 1.25 15.55 1.25ZM7.55 14.8779C7.05188 17.0453 6.749 18.6754 6.62129 19.7969C6.71495 19.5499 6.81908 19.2765 6.93086 18.9756L6.93477 18.9678C7.15591 18.4026 7.3118 17.9435 7.4123 17.5889C7.51601 17.2228 7.54992 17.0031 7.55 16.9004V14.8779ZM19.7922 12.7725C19.7582 13.9166 19.6119 14.8521 19.3801 15.6406L19.3762 15.6514C19.2039 16.1927 19.0834 16.6296 19.0061 16.9629C18.9262 17.3069 18.8997 17.51 18.8996 17.5996C18.8996 17.9472 18.9491 18.1332 18.9943 18.2158C19.0125 18.249 19.0224 18.251 19.0158 18.2471C19.0087 18.2428 19.0138 18.25 19.05 18.25C19.1042 18.25 19.2682 18.2364 19.4504 17.7451C19.6275 17.2674 19.7499 16.5006 19.8 15.4004V13.3496C19.8 13.153 19.797 12.9606 19.7922 12.7725ZM14.5002 7.5C14.2831 7.5 14.0904 7.59074 13.8986 7.89648C13.6918 8.2264 13.5181 8.76676 13.3967 9.56152C13.3478 10.2007 13.3 10.9794 13.3 11.9004C13.3 13.2085 13.426 14.1337 13.6486 14.7148C13.7585 15.0014 13.8795 15.1729 13.9914 15.2695C14.0935 15.3577 14.2053 15.4004 14.3498 15.4004C14.5313 15.4004 14.6865 15.3323 14.8469 15.0918C15.0261 14.8229 15.1857 14.3674 15.3068 13.665C15.4538 12.633 15.55 11.6137 15.55 10.7002C15.55 9.49427 15.425 8.64916 15.2072 8.12305C15.1004 7.86521 14.9825 7.71138 14.8732 7.62402C14.7719 7.543 14.655 7.50004 14.5002 7.5Z" stroke="#8A2BE2"/>
</svg>
